<svg id="e96d43fc-c2ba-4d44-92c2-c0adf9da4e64" xmlns="http://www.w3.org/2000/svg" xmlns:xlink="http://www.w3.org/1999/xlink" viewBox="0 0 811.32 531.56"><defs><style>.cls-1{fill:#3f3d56;}.cls-2{fill:#f2f2f2;}.cls-3{fill:url(#Degradado_sin_nombre);}.cls-12,.cls-4{fill:#194111;}.cls-5{fill:#591d15;}.cls-6{fill:#fda57d;}.cls-7{opacity:0.05;}.cls-12,.cls-17,.cls-27,.cls-7{isolation:isolate;}.cls-8{fill:#4f1710;}.cls-9{opacity:0.7;}.cls-10{fill:url(#Degradado_sin_nombre_2);}.cls-11{fill:#197011;}.cls-12,.cls-17{opacity:0.1;}.cls-13{fill:#e0e0e0;}.cls-14{fill:url(#Degradado_sin_nombre_3);}.cls-15{fill:#535461;}.cls-16{fill:#fff;}.cls-18{fill:#eee;}.cls-19{opacity:0.5;}.cls-20{fill:url(#Degradado_sin_nombre_4);}.cls-21{fill:#f5f5f5;}.cls-22{fill:url(#Degradado_sin_nombre_5);}.cls-23{fill:url(#Degradado_sin_nombre_6);}.cls-24,.cls-27{opacity:0.6;}.cls-25{fill:#bdbdbd;}.cls-26{fill:url(#Degradado_sin_nombre_7);}.cls-27{fill:#3ad29f;}.cls-28{fill:url(#Degradado_sin_nombre_8);}.cls-29{fill:url(#Degradado_sin_nombre_9);}.cls-30{fill:#69f0ae;}</style><linearGradient id="Degradado_sin_nombre" x1="491.81" y1="-73.09" x2="491.81" y2="300.22" gradientTransform="matrix(1, 0, 0, -1, -168.58, 413)" gradientUnits="userSpaceOnUse"><stop offset="0" stop-color="gray" stop-opacity="0.25"/><stop offset="0.54" stop-color="gray" stop-opacity="0.12"/><stop offset="1" stop-color="gray" stop-opacity="0.1"/></linearGradient><linearGradient id="Degradado_sin_nombre_2" x1="743.56" y1="-132.81" x2="743.56" y2="-71.8" xlink:href="#Degradado_sin_nombre"/><linearGradient id="Degradado_sin_nombre_3" x1="322.8" y1="32.84" x2="322.8" y2="190.94" gradientTransform="matrix(1, 0, 0, -1, 0, 533.56)" xlink:href="#Degradado_sin_nombre"/><linearGradient id="Degradado_sin_nombre_4" x1="497.51" y1="427.92" x2="497.51" y2="522.28" gradientTransform="matrix(1, 0, 0, -1, 0, 533.56)" xlink:href="#Degradado_sin_nombre"/><linearGradient id="Degradado_sin_nombre_5" x1="512.95" y1="406.11" x2="512.95" y2="500.47" gradientTransform="matrix(1, 0, 0, -1, 0, 533.56)" xlink:href="#Degradado_sin_nombre"/><linearGradient id="Degradado_sin_nombre_6" x1="634.52" y1="432.08" x2="634.52" y2="486.2" gradientTransform="matrix(1, 0, 0, -1, 0, 533.56)" xlink:href="#Degradado_sin_nombre"/><linearGradient id="Degradado_sin_nombre_7" x1="749.9" y1="389.23" x2="749.9" y2="533.56" gradientTransform="matrix(1, 0, 0, -1, 0, 533.56)" xlink:href="#Degradado_sin_nombre"/><linearGradient id="Degradado_sin_nombre_8" x1="653.31" y1="288.69" x2="653.31" y2="348.64" gradientTransform="matrix(1, 0, 0, -1, 0, 533.56)" xlink:href="#Degradado_sin_nombre"/><linearGradient id="Degradado_sin_nombre_9" x1="616.35" y1="296.32" x2="616.35" y2="370.63" gradientTransform="matrix(1, 0, 0, -1, 0, 533.56)" xlink:href="#Degradado_sin_nombre"/></defs><title>home</title><path class="cls-1" d="M105.42,505.62c0,18.88-11.22,25.48-25.07,25.48l-1,0c-.64,0-1.28,0-1.9-.08-12.5-.89-22.21-7.82-22.21-25.38,0-18.17,23.22-41.09,25-42.8h0l.1-.1S105.42,486.74,105.42,505.62Z" transform="translate(0 -42.44)"/><path class="cls-2" d="M79.44,528.21l9.17-12.81-9.19,14.21,0,1.47c-.64,0-1.28,0-1.9-.08l1-18.89V512l0,0,.09-1.78-9.22-14.26,9.25,12.92,0,.38.75-14.27-7.89-14.73,8,12.22.78-29.59v0l-.13,23.33L88,476.9l-7.89,11.26-.21,12.78,7.34-12.26-7.37,14.14-.11,7.11,10.64-17.07L79.7,512.41Z" transform="translate(0 -42.44)"/><path class="cls-3" d="M423.94,396.45c-6.7-24.31-43.89-42.23-72.91-46.86V337.91c.53-.2,1.07-.4,1.6-.62a25.46,25.46,0,0,0-1.4-6.84A70.44,70.44,0,0,0,382.09,306,79.36,79.36,0,0,0,366.42,183.7a15.57,15.57,0,0,0-7-28.68,30.39,30.39,0,0,0-47.31-35.31,30.38,30.38,0,0,1,44.65,26.83c0,.27,0,.53,0,.8a30.39,30.39,0,1,0-58.91,11.37,15.19,15.19,0,0,0-11.64,18.06,15,15,0,0,0,1.59,4.19,79.37,79.37,0,0,0-19.36,126.22,70.45,70.45,0,0,0,28.63,22.68v19.47c-29.33,4.19-67.95,22.44-74.7,47.35-5.88,21.71-12.16,45.56-15.28,59.55,26.77,18.81,82.95,29.86,118.15,29.86,33.45,0,88.12-10,114.1-27.1C436.55,443.61,430.07,418.72,423.94,396.45ZM370.31,171.87c0,.28,0,.55,0,.82a15.19,15.19,0,0,0-12.62-14.11c.3-.5.58-1,.84-1.52A15.19,15.19,0,0,1,370.31,171.87Z" transform="translate(0 -42.44)"/><path class="cls-4" d="M325.2,480.77c32.5,0,85.61-9.68,110.85-26.32-2.73-14.95-9-39.13-15-60.76C413.47,366.13,365.56,347,337,347H309.42c-28.67,0-76.66,19.22-84.16,46.89-5.71,21.1-11.81,44.26-14.84,57.86C236.43,470,291,480.77,325.2,480.77Z" transform="translate(0 -42.44)"/><circle class="cls-5" cx="324.68" cy="210.15" r="77.09"/><path class="cls-6" d="M303.87,306.18H344.2a6,6,0,0,1,6,6h0v41.24a24.79,24.79,0,0,1-24.78,24.78h-2.85a24.79,24.79,0,0,1-24.78-24.78h0V312.22a6,6,0,0,1,6-6Z" transform="translate(0 -42.44)"/><path class="cls-7" d="M326.45,341.1a68.11,68.11,0,0,0,25.34-4.88,25.11,25.11,0,0,0-25-23.49H324.6a25.12,25.12,0,0,0-25,22.86A68,68,0,0,0,326.45,341.1Z" transform="translate(0 -42.44)"/><circle class="cls-6" cx="324.82" cy="223.9" r="68.2"/><circle class="cls-5" cx="301.72" cy="134.7" r="14.76"/><circle class="cls-5" cx="354.2" cy="134.7" r="14.76"/><circle class="cls-5" cx="326.32" cy="110.09" r="29.52"/><path class="cls-8" d="M357.49,159.1a14.72,14.72,0,0,0-8.24,2.51,14.75,14.75,0,0,1,13.19,26.14,14.75,14.75,0,0,0-4.95-28.65Z" transform="translate(0 -42.44)"/><path class="cls-8" d="M331.24,118.09a29.47,29.47,0,0,0-18.78,6.74,29.52,29.52,0,0,1,32.64,48.85,29.52,29.52,0,0,0-13.86-55.59Z" transform="translate(0 -42.44)"/><path class="cls-5" d="M275.47,205s8.2,54.13,111.54,24.6l-50.85-44.29Z" transform="translate(0 -42.44)"/><rect class="cls-4" x="45.23" y="472.57" width="71.05" height="30.24" rx="14.3"/><g class="cls-9"><path class="cls-10" d="M595.13,495.7V484.8H540.66v50.39a10.61,10.61,0,0,0,10.62,10.62h33.23a10.61,10.61,0,0,0,10.62-10.62V524a14.16,14.16,0,1,0,0-28.32Zm0,22.88V501.14a8.72,8.72,0,0,1,0,17.44Z" transform="translate(0 -42.44)"/></g><path class="cls-11" d="M593.38,497.4a12.94,12.94,0,1,0,12.93,12.93,12.93,12.93,0,0,0-12.93-12.93Zm0,20.89a8,8,0,1,1,8-8h0A8,8,0,0,1,593.38,518.29Z" transform="translate(0 -42.44)"/><path class="cls-12" d="M593.38,497.4a12.94,12.94,0,1,0,12.93,12.93,12.93,12.93,0,0,0-12.93-12.93Zm0,20.89a8,8,0,1,1,8-8h0A8,8,0,0,1,593.38,518.29Z" transform="translate(0 -42.44)"/><path class="cls-4" d="M543.64,487.45h49.74v46a9.74,9.74,0,0,1-9.75,9.75H553.39a9.75,9.75,0,0,1-9.75-9.75v-46Z" transform="translate(0 -42.44)"/><rect class="cls-13" y="500.72" width="645.61" height="21.88"/><g class="cls-9"><rect class="cls-14" x="185.52" y="342.62" width="274.56" height="158.1" rx="14.5"/></g><rect class="cls-15" x="190.5" y="345.53" width="264.61" height="155.18" rx="26.84"/><circle class="cls-16" cx="322.8" cy="423.13" r="8.95"/><rect class="cls-13" x="27.36" y="522.6" width="590.89" height="8.95"/><rect class="cls-17" x="27.36" y="522.6" width="590.89" height="2.98"/><path class="cls-17" d="M584.43,487.46v46a9.7,9.7,0,0,1-9.7,9.7h5a9.7,9.7,0,0,0,9.7-9.7v-46Z" transform="translate(0 -42.44)"/><path class="cls-18" d="M553.46,450.37a2.92,2.92,0,0,0-2.2,1.12c-.65,1.18.53,2.51,1.61,3.33,2,1.5,4.09,3,5.45,5.07s1.78,5,.3,7c-1.94,2.62-6.55,3.18-7,6.41-.28,2.07,1.51,3.84,3.32,4.88,4.48,2.57,10.26,3.25,13.51,7.27,1.34-2.76,4.34-4.36,7.33-5s6.11-.63,9.14-1.09a3.16,3.16,0,0,0,2.52-1.34c.85-1.72-1.57-3.78-.73-5.51.63-1.32,2.5-1.22,3.86-1.74,2.22-.86,3.13-3.72,2.5-6a11.32,11.32,0,0,0-4.27-5.56c-5-4-11.11-6.29-17.24-8-2.85-.78-6.19-2-9.15-2.12S556.29,449.89,553.46,450.37Z" transform="translate(0 -42.44)"/><g class="cls-19"><rect class="cls-20" x="446.37" y="11.28" width="102.28" height="94.36" rx="4.5"/></g><rect class="cls-21" x="447.62" y="12.01" width="99.92" height="92.07" rx="4.5"/><rect class="cls-11" x="455.32" y="27.17" width="16.85" height="15.17" rx="4.5"/><rect class="cls-13" x="477.23" y="27.17" width="66.99" height="1.69" rx="0.8"/><rect class="cls-13" x="477.23" y="32.23" width="66.99" height="1.69" rx="0.8"/><rect class="cls-13" x="453.64" y="50.58" width="90.58" height="1.69" rx="0.8"/><rect class="cls-13" x="453.64" y="55.63" width="90.58" height="1.69" rx="0.8"/><rect class="cls-13" x="453.64" y="62.37" width="90.58" height="1.69" rx="0.8"/><rect class="cls-13" x="453.64" y="67.43" width="52.24" height="1.69" rx="0.8"/><rect class="cls-13" x="453.64" y="74.15" width="90.58" height="1.69" rx="0.8"/><rect class="cls-13" x="453.64" y="79.2" width="90.58" height="1.69" rx="0.8"/><rect class="cls-13" x="453.64" y="85.95" width="90.58" height="1.69" rx="0.8"/><rect class="cls-13" x="453.64" y="91" width="52.24" height="1.69" rx="0.8"/><g class="cls-19"><rect class="cls-22" x="461.81" y="33.08" width="102.28" height="94.36" rx="4.5"/></g><rect class="cls-16" x="463.06" y="33.81" width="99.92" height="92.07" rx="4.5"/><rect class="cls-11" x="470.76" y="48.98" width="16.85" height="15.17" rx="4.5"/><rect class="cls-13" x="492.66" y="48.98" width="66.99" height="1.69" rx="0.8"/><rect class="cls-13" x="492.66" y="54.03" width="66.99" height="1.69" rx="0.8"/><rect class="cls-13" x="469.07" y="72.38" width="90.58" height="1.69" rx="0.8"/><rect class="cls-13" x="469.07" y="77.44" width="90.58" height="1.69" rx="0.8"/><rect class="cls-13" x="469.07" y="84.18" width="90.58" height="1.69" rx="0.8"/><rect class="cls-13" x="469.07" y="89.23" width="52.24" height="1.69" rx="0.8"/><rect class="cls-13" x="469.07" y="95.96" width="90.58" height="1.69" rx="0.8"/><rect class="cls-13" x="469.07" y="101.01" width="90.58" height="1.69" rx="0.8"/><rect class="cls-13" x="469.07" y="107.75" width="90.58" height="1.69" rx="0.8"/><rect class="cls-13" x="469.07" y="112.81" width="52.24" height="1.69" rx="0.8"/><rect class="cls-23" x="606.36" y="47.36" width="56.33" height="54.12"/><rect class="cls-21" x="607.24" y="48.68" width="54.56" height="51.69"/><g class="cls-24"><rect class="cls-11" x="625.13" y="79.39" width="19.66" height="2.65"/></g><rect class="cls-25" x="617.73" y="84.25" width="33.58" height="2.65"/><g class="cls-19"><rect class="cls-26" x="688.49" width="122.84" height="144.32"/></g><rect class="cls-16" x="692.26" y="2.32" width="116.45" height="138.81"/><rect class="cls-13" x="709.69" y="63.22" width="81.89" height="3.48"/><rect class="cls-13" x="709.69" y="86.16" width="81.89" height="3.48"/><rect class="cls-13" x="709.69" y="92.26" width="81.89" height="3.48"/><rect class="cls-13" x="709.69" y="80.07" width="34.56" height="3.48"/><rect class="cls-27" x="765.73" y="80.07" width="25.84" height="3.48"/><rect class="cls-11" x="738.43" y="106.49" width="25.84" height="3.48"/><g class="cls-19"><rect class="cls-28" x="616.82" y="184.92" width="72.99" height="59.95"/></g><rect class="cls-2" x="617.67" y="186.05" width="71.14" height="57.82"/><rect class="cls-11" x="617.67" y="186.05" width="71.14" height="12.9"/><rect class="cls-17" x="617.67" y="186.05" width="71.14" height="12.9"/><rect class="cls-13" x="623.34" y="203.62" width="59.81" height="7.51"/><rect class="cls-13" x="623.34" y="216.8" width="43.65" height="2.55"/><rect class="cls-13" x="623.34" y="221.2" width="28.34" height="2.55"/><rect class="cls-13" x="623.34" y="225.59" width="37.41" height="2.55"/><rect class="cls-13" x="623.34" y="229.98" width="43.65" height="2.55"/><rect class="cls-13" x="623.34" y="234.38" width="14.6" height="2.55"/><g class="cls-19"><rect class="cls-29" x="571.12" y="162.93" width="90.46" height="74.3"/></g><rect class="cls-16" x="572.17" y="164.33" width="88.18" height="71.67"/><rect class="cls-11" x="572.17" y="164.33" width="88.18" height="15.98"/><rect class="cls-21" x="579.2" y="186.11" width="74.13" height="9.31"/><rect class="cls-13" x="579.2" y="202.45" width="54.1" height="3.16"/><rect class="cls-13" x="579.2" y="207.9" width="35.13" height="3.16"/><rect class="cls-13" x="579.2" y="213.34" width="46.37" height="3.16"/><rect class="cls-13" x="579.2" y="218.79" width="54.1" height="3.16"/><rect class="cls-13" x="579.2" y="224.23" width="18.09" height="3.16"/><rect class="cls-30" x="583.06" y="189.28" width="21.08" height="2.81"/></svg>